<?xml version="1.0" standalone="no"?>
<!DOCTYPE svg PUBLIC "-//W3C//DTD SVG 20010904//EN"
 "http://www.w3.org/TR/2001/REC-SVG-20010904/DTD/svg10.dtd">
<svg version="1.0" xmlns="http://www.w3.org/2000/svg"
 width="1000.000000pt" height="1000.000000pt" viewBox="0 0 1000.000000 1000.000000"
 preserveAspectRatio="xMidYMid meet">
<metadata>
Created by potrace 1.11, written by Peter Selinger 2001-2013
</metadata>
<g transform="translate(0.000000,1000.000000) scale(0.100000,-0.100000)"
fill="#000000" stroke="none">
<path d="M0 5000 l0 -5000 5000 0 5000 0 0 5000 0 5000 -5000 0 -5000 0 0
-5000z m9600 0 l0 -4600 -4600 0 -4600 0 0 4600 0 4600 4600 0 4600 0 0 -4600z"/>
<path d="M1672 5680 c0 -1458 3 -2649 5 -2646 3 3 11 0 18 -7 6 -7 31 -28 55
-47 24 -19 56 -47 71 -63 18 -18 28 -23 31 -15 3 7 4 1164 4 2571 -1 1516 3
2561 8 2565 5 3 6 0 2 -6 -3 -5 -2 -12 2 -14 14 -5 102 -175 95 -182 -4 -3 -2
-6 4 -6 5 0 18 -18 28 -40 10 -22 22 -40 27 -40 4 0 7 -3 7 -7 -1 -5 -1 -10 1
-13 7 -19 3 -80 -5 -80 -7 0 -7 -3 0 -8 12 -8 14 -82 2 -82 -5 0 -5 -5 -1 -12
10 -16 11 -98 1 -98 -5 0 -5 -5 -1 -11 9 -16 10 -119 1 -119 -5 0 -5 -5 -1
-11 9 -16 11 -229 1 -229 -5 0 -5 -5 -1 -12 10 -16 11 -98 1 -98 -5 0 -5 -5
-1 -11 9 -16 10 -119 1 -119 -5 0 -5 -5 -1 -12 10 -16 11 -98 1 -98 -5 0 -5
-5 -2 -11 10 -15 11 -149 2 -149 -5 0 -5 -5 -2 -11 10 -15 11 -149 2 -149 -5
0 -5 -5 -2 -11 10 -15 11 -149 2 -149 -5 0 -5 -5 -1 -11 9 -16 10 -119 1 -119
-5 0 -5 -5 -1 -12 10 -16 11 -98 1 -98 -5 0 -5 -5 -1 -11 9 -16 10 -119 1
-119 -5 0 -5 -5 -1 -11 9 -16 11 -229 1 -229 -5 0 -5 -5 -1 -12 10 -16 11 -98
1 -98 -5 0 -5 -5 -1 -11 9 -16 10 -119 1 -119 -5 0 -5 -5 -1 -11 9 -16 11
-229 1 -229 -5 0 -5 -5 -1 -12 10 -16 11 -98 1 -98 -5 0 -5 -5 -1 -11 9 -16
10 -119 1 -119 -5 0 -5 -5 -1 -11 9 -16 11 -229 1 -229 -5 0 -5 -5 -1 -12 10
-16 11 -98 1 -98 -5 0 -5 -5 -1 -11 9 -16 10 -119 1 -119 -5 0 -5 -5 -1 -11 9
-15 11 -389 1 -389 -5 0 -5 -5 -1 -12 10 -16 11 -98 1 -98 -5 0 -5 -5 -1 -11
9 -16 10 -119 1 -119 -5 0 -5 -5 -1 -11 9 -15 11 -389 1 -389 -5 0 -5 -5 -1
-12 10 -16 11 -98 1 -98 -5 0 -5 -5 -1 -11 9 -16 10 -119 1 -119 -5 0 -5 -5
-1 -11 8 -13 8 -374 0 -387 -3 -5 20 -31 50 -58 31 -27 61 -54 67 -60 7 -6 24
-18 39 -28 l26 -17 0 2383 c0 1724 3 2383 11 2386 6 2 11 -3 11 -11 0 -8 6
-20 14 -27 8 -6 12 -18 9 -26 -3 -8 -1 -14 5 -14 5 0 15 -13 22 -30 7 -16 16
-30 20 -30 3 0 7 -6 7 -12 0 -7 14 -37 32 -66 17 -29 31 -59 31 -67 0 -8 5
-15 11 -15 7 0 10 -12 7 -29 -2 -17 -2 -28 1 -26 6 3 6 -145 1 -170 -1 -5 -2
-12 0 -15 8 -23 7 -59 -2 -54 -7 5 -8 2 -3 -6 11 -18 12 -479 1 -473 -5 4 -6
0 -1 -7 10 -16 10 -214 0 -231 -5 -7 -4 -10 1 -6 8 4 11 -135 4 -168 -1 -5 -2
-12 0 -15 8 -23 7 -59 -2 -54 -7 5 -8 2 -3 -6 11 -18 12 -479 1 -473 -5 4 -6
0 -1 -7 10 -16 10 -214 0 -231 -5 -7 -4 -10 1 -6 8 4 11 -135 4 -168 -1 -5 -2
-14 0 -20 1 -5 2 -563 2 -1240 l1 -1230 24 -23 c12 -12 23 -21 23 -18 0 3 10
-5 23 -17 52 -49 97 -87 105 -87 5 0 8 941 8 2158 -1 1272 2 2162 7 2170 6 7
6 12 0 12 -5 0 -9 15 -9 34 0 19 4 32 8 30 5 -3 8 -12 8 -20 0 -8 4 -14 10
-14 5 0 12 -11 16 -25 3 -14 10 -25 16 -25 5 0 6 -5 3 -11 -4 -6 1 -17 11 -24
11 -8 15 -15 10 -15 -5 0 -1 -9 9 -20 10 -11 14 -20 9 -20 -5 0 -4 -4 2 -8 6
-4 26 -36 44 -72 l32 -64 1 -2124 c0 -2062 0 -2124 18 -2135 11 -7 19 -18 19
-26 0 -8 3 -12 6 -9 3 4 13 0 22 -8 69 -61 97 -84 103 -84 4 0 6 27 5 60 -1
33 2 60 7 60 4 0 5 5 1 12 -10 16 -11 327 -2 356 5 15 4 21 -2 17 -13 -8 -13
1 1 27 6 11 7 18 2 15 -10 -7 -8 177 3 194 4 8 3 10 -4 5 -15 -9 -15 -1 -1 26
6 11 7 18 2 15 -10 -6 -8 336 2 353 5 9 4 11 -3 6 -15 -9 -15 -1 -1 26 6 11 7
18 2 15 -10 -7 -8 177 3 194 4 8 3 10 -4 5 -15 -9 -15 -1 -1 26 6 11 7 18 2
15 -10 -6 -8 336 2 353 5 9 4 11 -3 6 -15 -9 -15 -1 -1 26 6 11 7 18 2 15 -10
-7 -8 177 3 194 4 8 3 10 -4 5 -15 -9 -15 -1 -1 26 6 11 7 18 2 15 -10 -6 -8
336 2 353 5 9 4 11 -3 6 -15 -9 -15 -1 -1 26 6 11 7 18 2 15 -10 -7 -8 177 3
194 4 8 3 10 -4 5 -15 -9 -15 -1 -1 26 6 11 7 18 2 15 -10 -7 -8 177 3 194 4
8 3 10 -4 5 -15 -9 -15 -1 -1 26 6 11 7 18 2 15 -10 -7 -8 177 3 194 4 8 3 10
-4 5 -15 -9 -15 -1 -1 26 8 15 8 19 0 14 -14 -9 -14 0 0 26 8 15 8 19 0 14
-14 -9 -14 0 0 26 6 11 7 18 2 15 -10 -7 -8 177 3 194 4 8 3 10 -4 5 -15 -9
-15 -1 -1 26 6 11 7 18 2 15 -4 -3 -8 118 -8 268 0 256 1 273 17 258 9 -8 20
-28 23 -44 4 -16 10 -29 14 -29 4 0 20 -27 36 -60 16 -33 33 -60 38 -60 5 0 7
-7 3 -15 -3 -8 -1 -15 5 -15 6 0 7 -4 4 -10 -3 -5 -2 -10 4 -10 5 0 13 -10 17
-22 4 -13 11 -26 16 -29 12 -8 16 -219 3 -219 -7 0 -7 -3 0 -8 12 -8 14 -102
2 -102 -5 0 -5 -6 0 -12 12 -21 12 -38 0 -38 -8 0 -8 -3 -2 -8 12 -8 14 -102
2 -102 -5 0 -5 -6 0 -12 12 -21 12 -38 0 -38 -8 0 -8 -3 -2 -8 12 -8 14 -102
2 -102 -5 0 -5 -6 0 -12 12 -21 12 -38 0 -38 -8 0 -8 -3 -2 -8 12 -8 14 -102
2 -102 -5 0 -5 -5 -1 -11 11 -18 10 -279 -1 -279 -7 0 -7 -3 0 -8 6 -4 10
-122 10 -317 0 -195 -4 -313 -10 -317 -7 -5 -7 -8 0 -8 6 0 10 -112 10 -315 0
-203 -4 -315 -10 -315 -7 0 -7 -3 0 -8 6 -4 10 -122 10 -317 0 -195 -4 -313
-10 -317 -7 -5 -7 -8 0 -8 6 0 10 -84 10 -232 0 -144 -4 -236 -10 -240 -7 -5
-7 -8 0 -8 6 0 9 -71 8 -196 l-2 -196 37 -33 c64 -59 97 -85 105 -85 5 0 5 -6
1 -12 -4 -7 -4 -10 1 -6 4 4 14 3 20 -2 10 -8 13 229 13 1102 1 612 3 1120 4
1128 2 8 7 20 11 27 4 6 3 14 -2 18 -12 7 -10 45 2 45 6 0 5 5 0 13 -11 14
-11 86 -1 103 4 6 5 14 1 17 -10 11 -11 67 -2 73 5 3 6 10 3 16 -10 17 -11
178 -1 178 4 0 5 6 0 13 -11 18 -12 67 0 67 6 0 6 5 0 13 -11 14 -11 86 -1
103 4 6 5 14 1 17 -10 11 -11 67 -2 73 5 3 6 10 2 17 -10 17 -10 396 1 390 5
-4 6 0 1 7 -11 18 -12 200 -1 200 5 0 3 7 -4 15 -7 8 -8 15 -3 15 13 0 44 -40
38 -50 -3 -5 3 -13 12 -19 13 -8 14 -10 4 -11 -11 0 -9 -4 5 -14 10 -8 20 -18
20 -23 4 -24 17 -53 24 -53 7 0 18 -29 18 -47 0 -3 5 -9 10 -12 12 -8 47 -74
44 -83 -1 -5 1 -8 6 -8 4 0 18 -25 32 -55 14 -30 28 -55 33 -55 4 0 7 -9 7
-20 0 -11 5 -20 11 -20 5 0 8 -4 5 -9 -3 -5 1 -14 9 -21 8 -7 15 -19 15 -26 0
-8 5 -14 10 -14 6 0 10 -7 10 -15 0 -8 14 -37 30 -63 17 -27 30 -54 30 -61 0
-6 5 -11 12 -11 6 0 9 -3 5 -6 -3 -3 4 -23 16 -43 13 -20 33 -57 46 -83 13
-27 28 -48 33 -48 5 0 7 -4 4 -9 -3 -5 3 -20 14 -34 11 -14 20 -32 20 -40 0
-9 6 -22 13 -29 6 -7 18 -26 26 -43 7 -16 17 -37 22 -45 4 -8 23 -43 41 -77
18 -35 36 -63 40 -63 5 0 8 -8 8 -19 0 -10 7 -24 15 -31 8 -7 13 -16 10 -20
-3 -4 2 -13 10 -20 8 -7 12 -16 9 -21 -3 -5 -2 -9 3 -9 4 0 15 -15 22 -32 8
-18 20 -38 25 -43 6 -6 57 -10 114 -9 67 0 102 -3 102 -10 0 -8 2 -8 8 0 10
15 294 15 304 0 6 -8 8 -8 8 0 0 13 188 13 209 0 9 -6 12 -5 8 1 -9 14 406 13
415 -1 6 -8 8 -8 8 0 0 13 188 13 209 0 9 -6 12 -5 8 1 -9 14 406 13 415 -1 5
-8 8 -7 8 1 0 8 11 11 28 9 29 -3 67 16 55 27 -3 4 -1 7 5 7 8 0 73 121 75
140 0 3 7 10 16 17 9 7 12 13 7 13 -5 0 -1 9 9 20 10 11 14 20 9 20 -5 0 -4 4
1 8 6 4 19 25 30 47 11 22 36 68 57 103 20 34 32 60 26 56 -6 -4 0 8 13 27 13
19 27 36 32 37 4 2 4 8 1 14 -4 6 -2 13 3 17 6 3 35 54 65 113 30 59 58 104
62 100 4 -4 7 -2 6 3 -4 18 12 55 21 49 5 -3 6 1 3 9 -3 8 2 21 10 30 8 8 18
26 22 41 3 14 9 26 13 26 4 0 11 12 17 27 6 16 12 33 14 38 2 6 12 19 22 29 9
10 15 22 13 27 -3 4 1 13 8 21 7 7 24 36 37 63 13 28 27 52 31 55 9 7 33 62
31 73 -1 4 3 7 8 7 6 0 10 5 10 10 0 6 11 28 24 49 14 21 23 40 21 42 -1 2 3
9 10 16 10 9 14 8 18 -8 3 -10 1 -21 -4 -24 -4 -3 -4 -17 1 -30 6 -15 6 -25 0
-25 -5 0 -5 -12 0 -30 5 -19 5 -30 -1 -30 -6 0 -7 -5 -3 -11 9 -16 11 -109 1
-109 -5 0 -5 -5 -1 -12 4 -7 7 -30 7 -52 -2 -61 -4 -420 -3 -426 6 -27 3 -110
-3 -110 -5 0 -5 -5 -1 -11 9 -16 11 -109 1 -109 -5 0 -5 -5 -1 -11 9 -16 11
-109 1 -109 -5 0 -5 -5 -1 -11 9 -16 11 -109 1 -109 -5 0 -5 -5 -1 -12 4 -7 7
-30 7 -52 -2 -51 -4 -739 -3 -746 6 -31 3 -110 -3 -110 -5 0 -5 -5 -1 -11 9
-16 11 -109 1 -109 -5 0 -5 -5 -1 -11 9 -16 11 -109 1 -109 -5 0 -5 -5 -1 -11
9 -16 11 -109 1 -109 -5 0 -5 -5 -2 -10 10 -16 11 -550 2 -550 -5 0 -5 -5 -1
-11 9 -16 11 -309 1 -309 -5 0 -5 -5 -1 -11 9 -16 11 -109 1 -109 -5 0 -5 -5
-1 -12 4 -6 6 -36 5 -66 l-3 -55 32 29 c73 67 81 74 85 74 15 0 72 68 70 82
-2 10 1 18 6 18 6 0 7 6 2 12 -10 17 -10 228 0 228 5 0 5 6 0 13 -12 19 -12
87 0 80 6 -4 7 -1 2 7 -13 21 -15 81 -2 73 6 -4 7 -1 1 8 -12 19 -13 59 -2 59
5 0 6 6 1 13 -10 16 -10 227 0 227 5 0 5 6 0 13 -12 19 -12 87 0 80 6 -4 7 -1
2 7 -13 21 -15 81 -2 73 6 -4 7 -1 1 8 -12 19 -13 59 -2 59 5 0 6 6 1 12 -10
17 -10 228 0 228 5 0 5 6 0 13 -12 19 -12 87 0 80 6 -4 7 -1 2 7 -13 21 -15
81 -2 73 6 -4 7 -1 1 8 -12 19 -13 59 -2 59 5 0 6 6 1 13 -10 16 -10 227 0
227 5 0 5 6 0 13 -11 17 -11 67 -1 67 5 0 6 6 1 13 -10 16 -10 227 0 227 5 0
5 6 0 13 -12 19 -12 87 0 80 6 -4 7 -1 2 7 -13 21 -15 81 -2 73 6 -4 7 -1 1 8
-12 19 -13 59 -2 59 5 0 6 6 1 13 -10 16 -10 227 0 227 5 0 5 6 0 13 -12 19
-12 87 0 80 6 -4 7 -1 2 7 -13 21 -15 81 -2 73 6 -4 7 -1 1 8 -12 19 -13 59
-2 59 5 0 6 6 1 13 -10 16 -10 227 0 227 5 0 5 6 0 13 -10 17 -10 707 1 707 5
0 4 6 -1 13 -13 17 -9 125 5 139 7 7 12 18 12 25 0 7 5 13 12 13 6 0 9 3 6 6
-4 3 12 38 34 77 21 40 42 80 45 90 3 9 10 17 15 17 5 0 7 4 4 8 -3 5 3 18 14
29 10 12 17 24 14 27 -2 3 -1 4 3 1 10 -8 10 -55 -1 -55 -6 0 -6 -4 0 -10 7
-7 8 -29 4 -55 -4 -25 -4 -45 0 -45 7 0 4 -66 -4 -102 -2 -10 -1 -18 3 -18 8
0 5 -65 -3 -102 -2 -10 -1 -18 2 -18 4 0 7 -18 7 -40 0 -22 -4 -40 -8 -40 -5
0 -5 -6 -1 -12 12 -19 12 -48 0 -48 -6 0 -4 -5 4 -10 11 -7 11 -10 2 -10 -8 0
-10 -5 -6 -12 12 -19 12 -48 0 -48 -6 0 -4 -5 4 -10 11 -7 11 -10 2 -10 -8 0
-10 -5 -6 -12 12 -19 12 -48 0 -48 -6 0 -4 -5 4 -10 11 -7 11 -10 2 -10 -8 0
-10 -5 -6 -12 12 -19 12 -48 0 -48 -6 0 -4 -5 4 -10 11 -7 11 -10 2 -10 -8 0
-10 -5 -6 -12 12 -19 12 -48 0 -48 -6 0 -4 -5 4 -10 11 -7 11 -10 2 -10 -8 0
-10 -5 -6 -12 12 -19 12 -48 0 -48 -6 0 -4 -5 4 -10 11 -7 11 -10 2 -10 -8 0
-10 -5 -6 -12 12 -19 12 -48 0 -48 -6 0 -4 -5 4 -10 11 -7 11 -10 2 -10 -8 0
-10 -5 -6 -12 11 -18 12 -48 2 -48 -5 0 -7 -4 -3 -9 11 -19 12 -70 1 -75 -8
-3 -8 -5 0 -5 7 -1 9 -16 4 -46 -4 -25 -4 -45 0 -45 7 0 4 -66 -4 -102 -2 -10
-1 -18 3 -18 8 0 5 -65 -3 -102 -2 -10 -1 -18 3 -18 8 0 5 -65 -3 -102 -2 -10
-1 -18 2 -18 11 0 8 -174 -3 -182 -6 -5 -6 -8 1 -8 7 0 9 -15 4 -45 -4 -25 -4
-45 0 -45 7 0 4 -66 -4 -102 -2 -10 -1 -18 3 -18 8 0 5 -65 -3 -102 -2 -10 -1
-18 3 -18 8 0 5 -65 -3 -102 -2 -10 -1 -18 2 -18 11 0 8 -174 -3 -182 -6 -5
-6 -8 1 -8 7 0 9 -15 4 -45 -4 -25 -4 -45 0 -45 7 0 4 -66 -4 -102 -2 -10 -1
-18 3 -18 8 0 5 -65 -3 -102 -2 -10 -1 -18 3 -18 8 0 5 -65 -3 -102 -2 -10 -1
-18 2 -18 11 0 8 -174 -3 -182 -6 -5 -6 -8 1 -8 7 0 9 -15 4 -45 -4 -25 -4
-45 0 -45 7 0 4 -66 -4 -102 -2 -10 -1 -18 3 -18 8 0 5 -65 -3 -102 -2 -10 -1
-18 3 -18 8 0 5 -65 -3 -102 -2 -10 -1 -18 3 -18 8 0 5 -65 -3 -102 -2 -10 -1
-18 3 -18 8 0 5 -65 -3 -102 -2 -10 -1 -18 3 -18 8 0 5 -65 -3 -103 -2 -9 -1
-17 3 -17 4 0 6 -18 4 -40 -4 -49 12 -52 50 -9 15 17 27 28 27 25 0 -3 12 5
28 18 15 14 36 33 48 43 l21 18 -1 2112 c-1 1161 2 2109 7 2106 4 -2 7 5 7 17
0 12 4 18 10 15 6 -4 9 -3 8 2 -4 14 13 53 23 53 6 0 8 4 4 9 -3 5 2 17 11 25
9 9 17 22 18 30 1 7 8 24 17 37 8 13 28 51 44 84 26 55 29 58 35 35 3 -14 3
-27 -2 -28 -4 -2 -5 -8 -2 -13 3 -6 6 -980 5 -2165 0 -1937 1 -2155 15 -2150
9 3 18 6 20 6 3 0 2 5 -1 10 -3 6 -1 10 5 10 6 0 17 6 24 13 16 15 95 80 110
89 8 5 11 623 12 2305 1 2460 -2 2308 43 2383 44 72 70 120 65 120 -3 0 2 7
10 16 9 8 14 19 11 24 -3 4 2 13 10 20 8 7 15 18 15 26 0 7 4 16 10 19 6 4 10
-800 10 -2366 0 -1305 3 -2375 6 -2378 3 -3 14 5 25 18 10 13 19 20 19 16 0
-5 8 1 18 11 9 11 38 36 63 57 l46 37 0 2481 c0 2018 2 2482 13 2489 7 4 9 13
6 19 -4 6 -2 11 3 11 6 0 11 7 11 16 0 8 5 12 10 9 6 -4 10 7 10 26 0 18 3 29
7 26 3 -4 21 21 38 55 65 128 79 148 86 136 5 -7 3 -15 -3 -19 -7 -4 -6 -8 3
-12 11 -4 11 -6 1 -6 -7 -1 -10 -6 -6 -12 10 -16 11 -89 1 -89 -5 0 -5 -5 -2
-11 9 -13 12 -79 5 -79 -4 0 -4 -89 3 -353 1 -51 -2 -89 -8 -91 -5 -3 -4 -5 3
-5 7 -1 11 -5 8 -9 -4 -8 -7 -141 -5 -247 1 -22 0 -58 0 -80 -1 -22 0 -70 1
-108 2 -37 1 -67 -2 -67 -3 0 -4 -26 -2 -57 7 -160 6 -223 -3 -227 -5 -3 -4
-5 3 -5 7 -1 11 -5 8 -9 -6 -10 -7 -95 -4 -215 2 -51 -1 -89 -7 -91 -5 -3 -4
-5 2 -5 9 -1 10 -8 4 -24 -5 -13 -6 -29 -2 -35 3 -6 6 -26 5 -44 -4 -69 -5
-115 -2 -181 2 -37 1 -67 -2 -67 -4 0 -4 -90 3 -353 1 -51 -2 -89 -8 -91 -5
-3 -4 -5 3 -5 7 -1 11 -5 8 -9 -4 -8 -7 -141 -5 -247 1 -22 0 -58 0 -80 -1
-22 0 -70 1 -108 2 -37 1 -67 -2 -67 -4 0 -4 -90 3 -353 1 -51 -2 -89 -8 -91
-5 -3 -4 -5 3 -5 7 -1 11 -5 8 -10 -5 -8 -8 -370 -3 -534 1 -51 -2 -89 -8 -91
-5 -3 -4 -5 3 -5 7 -1 11 -5 8 -10 -5 -8 -8 -370 -3 -534 1 -51 -2 -89 -8 -91
-7 -3 -7 -5 0 -5 6 -1 9 -49 7 -131 -3 -132 1 -147 33 -118 7 7 35 31 61 53
26 22 55 48 65 58 18 16 19 101 19 2662 l0 2645 -952 -2 -951 -3 -17 -30 c-10
-16 -15 -33 -13 -37 2 -5 0 -8 -6 -8 -6 0 -20 -22 -32 -50 -12 -27 -26 -50
-31 -50 -6 0 -8 -6 -5 -14 3 -8 -1 -20 -9 -26 -8 -7 -14 -19 -14 -26 0 -8 -4
-14 -8 -14 -4 0 -14 -16 -21 -35 -7 -19 -17 -35 -22 -35 -6 0 -8 -3 -5 -8 2
-4 -9 -27 -25 -50 -16 -24 -25 -41 -19 -37 6 4 -3 -15 -19 -41 -17 -26 -28
-51 -25 -55 3 -5 0 -9 -6 -9 -9 0 -32 -41 -34 -63 -1 -4 -8 -12 -16 -17 -8 -5
-12 -10 -8 -10 4 0 -9 -27 -28 -61 -18 -33 -34 -65 -34 -70 0 -5 -4 -9 -10 -9
-5 0 -9 -3 -8 -7 2 -8 -23 -64 -32 -73 -13 -13 -39 -68 -34 -73 3 -3 -4 -10
-15 -17 -12 -6 -19 -16 -15 -22 4 -5 3 -13 -2 -17 -5 -3 -19 -27 -32 -53 -13
-26 -27 -50 -33 -53 -5 -4 -7 -11 -4 -16 4 -5 2 -9 -3 -9 -9 0 -25 -37 -23
-52 1 -5 -4 -8 -9 -8 -6 0 -10 -7 -10 -16 0 -9 -5 -12 -11 -8 -7 4 -10 1 -7
-7 3 -8 -3 -25 -12 -39 -9 -14 -23 -40 -31 -57 -8 -18 -18 -33 -22 -33 -5 0
-5 -4 -2 -10 3 -5 1 -10 -5 -10 -7 0 -10 -6 -7 -14 3 -8 0 -17 -8 -19 -7 -3
-16 -19 -20 -36 -4 -17 -10 -31 -14 -31 -7 0 -61 -102 -62 -117 0 -5 -7 -11
-14 -16 -8 -4 -11 -15 -8 -24 4 -11 3 -14 -5 -9 -7 4 -13 2 -13 -3 -1 -6 -3
-15 -4 -21 -1 -5 -3 -15 -4 -21 0 -5 -6 -7 -11 -4 -6 4 -9 3 -8 -2 3 -9 -42
-104 -53 -113 -4 -3 -9 -14 -11 -25 -1 -11 -10 -25 -18 -32 -8 -6 -15 -15 -15
-20 -1 -14 -57 -118 -67 -124 -5 -3 -10 -10 -10 -15 -1 -19 -62 -134 -71 -134
-6 0 -7 -3 -4 -7 4 -3 -2 -20 -12 -37 -11 -17 -37 -65 -59 -106 -93 -176 -115
-215 -122 -220 -4 -3 -6 -13 -4 -22 1 -10 -1 -18 -6 -18 -4 0 -20 -25 -36 -55
-16 -30 -33 -55 -37 -55 -5 0 -5 5 -2 10 3 6 1 10 -5 10 -6 0 -8 5 -5 10 3 6
2 10 -2 10 -5 0 -17 18 -27 40 -10 22 -22 40 -27 40 -5 0 -8 3 -8 8 3 16 -2
31 -13 44 -18 18 -54 90 -51 100 2 4 -2 8 -7 8 -6 0 -10 9 -10 21 0 11 -4 18
-9 15 -5 -4 -12 7 -16 24 -4 16 -11 30 -16 30 -6 0 -8 4 -4 9 3 6 -3 14 -12
20 -10 5 -16 11 -15 13 6 5 -21 62 -33 70 -6 5 -6 8 0 8 7 0 7 3 0 8 -5 4 -21
30 -35 57 -14 28 -27 52 -30 55 -3 3 -16 28 -30 55 -13 28 -29 53 -35 57 -5 4
-7 8 -3 8 4 0 -11 31 -33 70 -21 38 -39 74 -39 79 0 5 -11 22 -24 38 -13 15
-24 33 -25 38 -3 24 -13 45 -22 45 -5 0 -9 6 -9 13 0 18 -23 67 -32 67 -3 0
-12 16 -18 35 -7 22 -16 33 -23 28 -7 -3 -9 -3 -5 2 7 8 -29 84 -45 96 -5 3
-8 8 -7 10 3 7 -24 64 -37 77 -7 8 -11 17 -8 22 3 5 1 10 -3 12 -5 1 -20 26
-34 55 -14 29 -28 49 -32 46 -5 -5 -10 28 -7 49 0 4 -8 10 -19 13 -11 4 -18
10 -15 15 6 10 -26 70 -38 70 -5 0 -5 5 -2 10 3 6 -3 22 -14 36 -11 15 -18 30
-15 35 3 5 1 9 -4 9 -5 0 -19 21 -32 48 -13 26 -32 59 -42 73 -9 14 -15 29
-11 33 3 3 1 6 -6 6 -7 0 -10 4 -7 8 3 5 -3 18 -14 29 -10 12 -16 24 -12 27 3
4 0 11 -8 16 -8 5 -16 13 -16 17 -3 18 -29 73 -35 73 -4 0 -10 11 -13 25 -4
14 -11 25 -17 25 -6 0 -7 5 -4 10 3 6 1 10 -5 10 -6 0 -8 5 -5 10 3 6 1 10 -6
10 -7 0 -10 3 -6 6 3 4 -5 23 -18 43 -14 19 -25 44 -25 53 0 10 -4 18 -10 18
-5 0 -12 11 -16 25 -3 13 -12 29 -20 36 -8 6 -11 15 -8 20 3 5 0 9 -6 9 -6 0
-9 4 -5 9 3 5 1 12 -4 15 -5 3 -20 28 -34 54 -14 26 -35 66 -48 88 -33 57 -59
112 -59 122 0 6 -7 13 -16 16 -9 3 -445 6 -969 6 l-953 0 0 -2650z m443 2480
c6 -1 12 -1 15 0 17 7 52 5 57 -3 3 -5 9 -4 13 3 4 7 13 -1 24 -24 9 -19 21
-38 26 -41 6 -4 8 -11 5 -16 -4 -5 -3 -9 2 -9 4 0 17 -18 27 -40 11 -22 23
-40 27 -40 5 0 6 -6 3 -13 -2 -7 4 -22 15 -34 11 -11 17 -24 14 -27 -4 -3 -1
-6 6 -6 7 0 10 -4 6 -9 -3 -5 2 -16 10 -25 9 -8 15 -17 14 -18 -4 -6 44 -103
54 -109 5 -4 6 -12 3 -18 -4 -6 -2 -11 4 -11 10 0 35 -48 32 -62 -1 -5 2 -8 8
-8 5 0 10 -7 10 -15 0 -9 6 -18 14 -21 8 -3 12 -12 9 -20 -3 -8 0 -14 6 -14 6
0 11 -7 11 -15 0 -8 5 -15 11 -15 5 0 8 -4 4 -9 -3 -5 1 -16 9 -24 8 -8 13
-17 10 -19 -2 -3 2 -11 11 -18 8 -7 15 -18 15 -24 0 -7 8 -21 18 -32 9 -10 19
-28 20 -39 2 -11 7 -22 12 -25 4 -3 10 -15 14 -27 4 -13 12 -23 17 -23 6 0 7
-4 4 -10 -3 -5 -3 -10 2 -10 4 0 19 -25 33 -55 14 -30 28 -55 32 -55 5 0 8
-11 8 -25 0 -14 4 -25 9 -25 5 0 15 -16 22 -35 7 -19 17 -35 22 -35 4 0 6 -4
3 -9 -3 -5 1 -14 9 -21 8 -7 12 -16 9 -21 -3 -5 2 -12 10 -15 9 -3 14 -10 11
-14 -3 -4 5 -23 18 -41 12 -19 35 -60 52 -91 16 -32 33 -58 38 -58 4 0 6 -4 3
-9 -3 -5 1 -14 10 -21 8 -7 13 -19 10 -27 -3 -7 -1 -13 3 -13 5 0 22 -27 37
-59 16 -33 33 -57 38 -54 5 3 6 1 2 -5 -3 -6 -2 -13 4 -17 5 -3 10 -15 10 -26
0 -11 7 -22 15 -25 8 -4 12 -10 9 -15 -3 -5 0 -9 7 -9 7 0 10 -3 6 -6 -3 -3 3
-22 13 -42 11 -19 16 -40 13 -45 -3 -6 -1 -7 5 -3 6 4 16 -8 23 -29 7 -19 16
-35 20 -35 6 0 19 -37 18 -48 0 -2 7 -9 17 -16 9 -7 14 -18 10 -24 -4 -7 -3
-12 2 -12 5 0 15 -13 22 -30 7 -16 17 -30 22 -30 5 0 6 -4 3 -10 -3 -5 3 -19
14 -31 11 -12 18 -26 15 -31 -3 -4 -1 -8 4 -8 6 0 18 -20 29 -45 10 -25 21
-45 26 -45 4 0 7 -9 7 -21 0 -11 5 -17 10 -14 6 3 10 -1 10 -10 0 -14 18 -53
30 -65 3 -3 16 -27 30 -55 14 -27 42 -81 63 -119 20 -38 37 -73 37 -78 0 -5 9
-18 20 -30 10 -12 17 -24 15 -28 -3 -4 2 -13 10 -20 8 -7 15 -19 15 -26 0 -8
5 -14 11 -14 5 0 8 -4 4 -9 -3 -5 2 -16 11 -25 8 -9 12 -20 9 -26 -3 -5 -1
-10 4 -10 6 0 11 -7 11 -16 0 -9 5 -12 12 -8 6 4 8 3 4 -4 -3 -6 2 -18 11 -28
10 -10 17 -19 16 -21 -4 -7 10 -43 17 -43 8 0 23 -38 21 -52 -1 -5 3 -8 9 -8
5 0 10 -5 10 -11 0 -6 10 -25 22 -42 12 -17 17 -27 10 -23 -8 5 -10 2 -6 -8 3
-9 12 -16 20 -16 8 0 14 -7 14 -16 0 -17 40 -95 55 -106 6 -4 6 -8 2 -8 -5 0
-1 -7 7 -16 9 -8 16 -24 16 -35 0 -10 4 -19 10 -19 5 0 12 -11 16 -25 3 -14
10 -25 16 -25 5 0 7 -4 3 -9 -3 -5 2 -16 10 -24 8 -9 15 -19 15 -22 0 -4 10
-21 22 -38 12 -17 16 -27 8 -22 -8 5 -5 -4 8 -19 12 -16 22 -35 22 -42 0 -8 5
-14 11 -14 5 0 8 -4 5 -9 -4 -5 -3 -11 2 -13 4 -1 23 -32 41 -68 19 -36 39
-68 44 -71 5 -4 6 -12 3 -18 -4 -6 -2 -11 3 -11 6 0 11 -5 11 -11 0 -6 9 -24
21 -40 11 -16 17 -29 12 -29 -4 0 -3 -4 2 -8 6 -4 19 -25 30 -47 10 -22 28
-53 38 -68 10 -15 16 -35 13 -43 -3 -8 -2 -13 2 -10 10 6 91 -149 83 -161 -3
-5 -40 -8 -81 -7 -98 2 -97 1 -104 22 -3 9 -12 26 -19 37 -27 43 -51 90 -49
98 1 4 -3 7 -10 7 -6 0 -9 3 -5 6 3 4 -1 13 -9 21 -8 8 -12 19 -9 24 4 5 2 9
-4 9 -5 0 -13 10 -17 23 -3 12 -15 34 -26 50 -11 15 -16 27 -11 27 4 0 3 4 -2
8 -6 4 -21 28 -34 55 -13 26 -27 47 -30 47 -4 0 -7 10 -8 22 -1 11 -6 24 -10
27 -5 3 -14 17 -21 31 -6 14 -28 53 -47 88 -19 34 -32 62 -30 62 3 0 -3 9 -13
20 -9 12 -17 24 -18 28 -1 17 -28 62 -36 62 -5 0 -6 5 -3 10 3 6 2 10 -3 10
-9 0 -27 47 -24 63 1 4 -2 7 -8 7 -5 0 -24 29 -41 65 -18 36 -37 65 -42 65 -4
0 -6 4 -3 9 3 5 -5 25 -18 44 -13 19 -22 38 -18 41 3 3 0 6 -7 6 -8 0 -11 7
-7 15 3 8 2 15 -2 15 -4 0 -18 21 -32 48 -13 26 -29 50 -35 54 -5 4 -7 8 -3 8
4 0 -5 21 -20 48 -15 26 -36 65 -47 87 -11 22 -22 42 -25 45 -13 13 -40 70
-33 70 4 0 3 4 -2 8 -6 4 -22 28 -35 55 -14 26 -29 47 -33 47 -5 0 -6 4 -3 9
3 4 -1 17 -9 27 -8 10 -15 27 -15 37 0 9 -4 17 -10 17 -5 0 -10 7 -10 15 0 8
-5 15 -11 15 -5 0 -8 4 -4 9 3 5 -2 16 -10 24 -8 9 -15 23 -15 31 0 9 -5 16
-11 16 -5 0 -8 4 -5 9 3 4 -3 16 -14 26 -10 9 -16 23 -13 31 3 8 1 14 -4 14
-9 0 -38 52 -42 75 -1 6 -11 20 -23 32 -11 12 -17 26 -13 32 3 6 1 11 -5 11
-6 0 -18 15 -26 33 -8 17 -28 54 -44 82 -15 27 -27 51 -25 53 2 2 -4 12 -13
23 -9 11 -17 23 -17 27 0 4 -5 14 -10 22 -5 8 -26 47 -46 85 -104 201 -119
229 -129 239 -5 5 -10 16 -10 24 0 7 -11 28 -24 45 -13 18 -29 47 -37 65 -8
17 -17 32 -21 32 -5 0 -8 9 -8 20 0 11 -4 20 -10 20 -5 0 -10 5 -10 10 0 6
-19 46 -42 88 -24 42 -42 80 -40 85 1 4 -3 7 -9 7 -5 0 -8 4 -4 9 3 5 -1 16
-9 23 -7 8 -17 24 -20 36 -4 12 -12 22 -17 22 -6 0 -7 5 -4 10 3 6 1 10 -6 10
-7 0 -10 2 -7 6 5 4 -49 107 -150 287 -12 20 -18 37 -14 37 4 0 2 4 -3 8 -16
10 -55 81 -55 98 0 8 -4 14 -10 14 -5 0 -10 7 -10 15 0 8 -5 15 -12 15 -6 0
-8 3 -5 6 4 4 -3 20 -14 35 -11 16 -17 29 -12 29 4 0 4 4 -2 8 -5 4 -25 36
-44 72 -59 116 -103 195 -113 208 -6 6 -7 12 -3 12 3 0 -3 12 -14 26 -23 30
-27 50 -10 56 11 4 53 2 74 -2z m445 0 c8 5 22 4 33 -2 14 -7 17 -7 13 1 -10
16 -2 13 22 -8 12 -10 22 -26 22 -35 0 -9 5 -16 10 -16 6 0 10 -6 10 -14 0 -8
4 -16 9 -18 5 -1 11 -12 13 -23 1 -11 11 -29 20 -39 10 -10 15 -23 12 -28 -3
-4 -1 -8 4 -8 6 0 13 -12 17 -27 3 -15 10 -30 13 -33 17 -13 62 -112 56 -122
-4 -7 -3 -8 4 -4 7 4 12 1 12 -9 0 -10 5 -13 12 -9 8 5 9 2 5 -9 -3 -10 -2
-17 4 -17 6 0 7 -4 4 -10 -3 -5 -2 -10 3 -10 4 0 14 -16 22 -35 8 -19 17 -35
22 -35 4 0 8 -9 8 -19 0 -11 4 -21 8 -23 12 -5 52 -77 52 -94 0 -8 7 -14 16
-14 8 0 13 -4 9 -10 -5 -8 11 -47 25 -60 3 -3 13 -18 21 -35 8 -16 37 -73 64
-125 27 -52 48 -98 47 -102 -1 -5 3 -8 9 -8 5 0 7 -5 4 -10 -3 -6 1 -13 9 -16
9 -3 16 -12 16 -18 0 -18 24 -66 33 -66 4 0 7 -9 7 -20 0 -11 4 -20 9 -20 9 0
27 -40 22 -49 -2 -2 2 -7 8 -11 13 -8 33 -42 88 -150 21 -41 41 -77 44 -80 4
-3 9 -15 13 -27 4 -13 12 -23 17 -23 6 0 7 -4 4 -10 -3 -5 -1 -10 5 -10 6 0 8
-4 5 -10 -3 -5 -1 -10 6 -10 7 0 9 -3 6 -7 -4 -3 -3 -11 2 -17 22 -27 60 -104
54 -110 -4 -3 -1 -6 5 -6 7 0 12 -6 12 -14 0 -7 7 -19 15 -26 8 -7 13 -16 10
-20 -2 -4 3 -16 13 -26 9 -11 18 -26 20 -34 2 -8 10 -22 17 -30 7 -8 14 -19
14 -25 1 -5 8 -18 16 -28 9 -10 13 -22 10 -27 -4 -6 -2 -10 3 -10 6 0 13 -11
16 -25 4 -14 11 -25 16 -25 6 0 10 -9 10 -20 0 -10 7 -23 16 -28 9 -5 15 -12
15 -16 -1 -6 29 -69 65 -138 9 -16 18 -28 22 -28 4 0 9 -10 9 -22 1 -13 7 -24
13 -26 5 -2 8 -8 4 -13 -3 -5 -1 -9 3 -9 5 0 20 -25 33 -55 13 -30 28 -55 33
-55 4 0 6 -4 2 -9 -3 -5 -1 -12 4 -15 4 -3 21 -32 37 -63 15 -32 36 -70 46
-84 9 -14 15 -29 11 -32 -3 -4 2 -9 11 -13 9 -3 16 -13 16 -21 0 -8 9 -27 20
-43 11 -15 17 -29 14 -32 -2 -3 2 -11 11 -18 8 -7 15 -19 15 -26 0 -8 5 -14
11 -14 6 0 9 -7 5 -15 -3 -8 4 -21 17 -30 12 -8 18 -15 14 -15 -7 0 30 -77 43
-90 8 -8 40 -80 37 -83 -1 -2 6 -11 16 -21 9 -10 17 -24 17 -32 0 -8 4 -14 10
-14 5 0 9 -3 8 -7 -3 -11 63 -137 73 -141 5 -2 7 -7 4 -12 -3 -4 2 -13 10 -20
8 -7 15 -21 15 -30 0 -10 3 -20 8 -22 13 -5 52 -85 45 -92 -3 -3 -2 -6 4 -6
13 0 63 -92 63 -115 0 -9 5 -13 10 -10 6 3 10 0 10 -9 0 -14 29 -76 41 -86 7
-7 22 -43 21 -51 -1 -4 8 -15 18 -24 11 -10 20 -24 20 -32 0 -7 5 -13 11 -13
5 0 8 -4 4 -9 -3 -5 2 -16 10 -25 9 -9 18 -26 20 -38 3 -12 9 -24 14 -27 11
-7 35 -62 33 -73 -1 -5 3 -8 9 -8 5 0 8 -4 5 -9 -3 -5 1 -14 9 -21 8 -7 12
-16 9 -21 -3 -5 0 -9 5 -9 6 0 11 -6 11 -13 0 -7 5 -18 12 -25 29 -29 17 -39
-47 -38 -35 1 -67 4 -70 8 -4 4 -16 1 -27 -5 -17 -10 -23 -8 -44 18 -13 17
-24 38 -24 48 0 9 -4 17 -9 17 -5 0 -11 8 -14 18 -4 9 -14 28 -24 42 -10 13
-12 21 -5 16 8 -5 2 10 -12 32 -14 22 -22 43 -19 46 4 3 2 6 -3 6 -6 0 -16 16
-24 35 -8 19 -18 35 -22 35 -5 0 -6 5 -3 10 3 6 1 10 -6 10 -7 0 -10 3 -6 6 5
6 0 15 -31 49 -7 8 -11 15 -8 15 3 0 -8 23 -24 50 -17 28 -30 55 -30 60 0 6
-4 10 -10 10 -5 0 -10 9 -10 19 0 11 -5 23 -11 26 -11 8 -33 55 -31 68 1 4 -2
7 -7 7 -10 0 -27 39 -23 53 1 4 -2 7 -6 7 -10 0 -37 50 -34 63 1 4 -3 7 -9 7
-5 0 -7 5 -4 10 3 6 2 10 -3 10 -5 0 -15 15 -23 33 -7 17 -16 34 -19 37 -3 3
-12 20 -19 38 -8 17 -18 32 -24 32 -6 0 -7 3 -4 6 4 4 -3 20 -14 35 -11 16
-17 29 -12 29 4 0 4 4 -2 8 -13 9 -48 72 -40 72 3 0 -3 10 -14 22 -11 11 -18
25 -15 30 3 4 0 8 -6 8 -6 0 -9 4 -6 8 3 5 -5 20 -17 33 -12 13 -20 24 -18 24
9 0 -11 45 -20 45 -5 0 -9 6 -9 13 0 7 -6 19 -12 25 -7 7 -14 16 -14 20 -3 20
-29 72 -36 72 -4 0 -8 9 -8 20 0 10 -6 23 -14 27 -8 4 -14 10 -14 13 2 11 -42
99 -52 105 -6 4 -8 10 -6 14 3 4 -3 17 -12 27 -10 10 -20 24 -22 29 -2 6 -8
22 -14 38 -6 15 -14 27 -19 27 -4 0 -6 4 -3 9 3 5 -1 14 -9 21 -8 7 -15 19
-15 26 0 8 -5 14 -11 14 -5 0 -7 5 -4 10 3 6 1 10 -6 10 -7 0 -9 3 -6 7 4 3 3
11 -2 17 -5 6 -30 51 -56 101 -26 49 -52 93 -58 97 -6 4 -8 10 -5 14 4 3 0 13
-8 21 -8 9 -13 22 -10 29 3 8 -1 14 -10 14 -8 0 -13 4 -10 9 4 5 3 11 -1 13
-5 1 -28 42 -53 91 -25 48 -48 87 -52 87 -5 0 -7 3 -6 8 4 11 -26 72 -34 72
-5 0 -8 9 -8 20 0 11 -5 20 -10 20 -6 0 -9 4 -8 8 3 9 -62 142 -73 152 -6 6
-16 31 -17 44 0 5 -6 12 -13 17 -7 4 -14 14 -15 23 -1 8 -12 29 -23 45 -12 16
-21 36 -21 45 0 9 -4 16 -9 16 -11 0 -51 66 -51 86 0 8 -4 14 -10 14 -5 0 -10
5 -10 11 0 6 -9 24 -21 40 -11 16 -17 29 -13 29 3 0 1 7 -6 15 -7 8 -10 15 -6
15 3 0 -3 9 -14 20 -12 12 -18 25 -15 30 4 6 2 10 -3 10 -9 0 -44 69 -42 84 1
5 -2 12 -7 15 -8 6 -27 40 -86 156 -17 33 -34 62 -39 63 -4 2 -8 12 -8 23 0
10 -4 19 -9 19 -5 0 -12 8 -15 18 -9 22 -36 70 -59 102 -9 13 -17 32 -17 42 0
10 -4 18 -9 18 -5 0 -14 15 -22 33 -7 17 -17 35 -21 38 -5 3 -10 16 -11 27 -1
12 -4 22 -8 22 -7 0 -42 67 -45 87 -1 7 -9 20 -18 29 -19 19 -21 28 -3 19 6
-4 5 -1 -3 7 -9 7 -22 28 -29 46 -7 17 -17 32 -22 32 -5 0 -9 6 -9 13 0 6 -11
33 -25 59 -14 26 -25 49 -25 52 0 8 64 12 86 5 11 -4 27 -3 34 1z m362 -5 c8
9 113 9 126 1 7 -4 10 -12 7 -17 -4 -5 -2 -9 3 -9 4 0 14 -16 22 -35 8 -19 16
-35 20 -35 3 0 7 -10 7 -22 1 -13 7 -24 13 -26 5 -2 8 -8 4 -13 -3 -5 0 -9 6
-9 6 0 8 -4 5 -10 -3 -5 -2 -10 3 -10 4 0 14 -16 22 -35 8 -19 17 -35 20 -35
4 0 13 -18 20 -40 7 -22 16 -40 19 -40 3 0 12 -15 20 -32 8 -18 23 -45 33 -60
11 -16 16 -28 11 -28 -4 0 0 -5 10 -11 9 -6 15 -14 12 -20 -4 -5 -1 -9 4 -9 6
0 11 -7 11 -15 0 -8 5 -15 11 -15 5 0 7 -4 4 -10 -3 -5 -1 -10 5 -10 6 0 9 -4
6 -9 -3 -5 1 -14 9 -21 8 -7 15 -19 15 -26 0 -8 5 -14 11 -14 5 0 8 -4 4 -9
-3 -5 2 -16 10 -25 9 -8 16 -19 15 -23 0 -4 8 -17 17 -28 9 -11 15 -20 13 -20
-7 0 54 -119 65 -127 6 -4 6 -8 2 -8 -5 0 -1 -7 7 -16 9 -8 16 -22 16 -30 0
-8 5 -14 11 -14 6 0 9 -7 5 -15 -3 -8 -2 -15 3 -15 9 0 37 -60 33 -72 -1 -5 3
-8 9 -8 5 0 17 -15 25 -32 27 -60 79 -155 93 -171 7 -10 10 -17 5 -17 -5 0 -4
-4 1 -8 12 -8 39 -64 37 -74 -1 -5 3 -8 8 -8 6 0 10 -6 10 -14 0 -8 7 -17 16
-20 8 -3 12 -11 8 -17 -3 -6 -2 -14 3 -18 5 -3 33 -53 62 -111 29 -58 60 -112
67 -121 8 -8 14 -23 14 -32 0 -9 5 -17 11 -17 5 0 8 -4 5 -9 -4 -5 -2 -11 3
-13 4 -1 18 -22 30 -45 11 -24 31 -62 42 -85 12 -24 26 -45 30 -46 5 -2 7 -7
4 -12 -3 -5 2 -16 11 -24 8 -9 12 -16 7 -16 -4 0 -3 -4 2 -8 12 -9 46 -74 44
-86 0 -5 3 -12 8 -15 5 -3 23 -31 39 -61 16 -30 33 -58 37 -61 5 -3 8 -9 8
-13 -1 -12 12 -41 31 -68 11 -16 16 -28 11 -28 -4 0 -2 -4 6 -9 8 -5 16 -18
17 -28 2 -9 8 -19 13 -21 6 -2 11 -10 11 -18 0 -14 19 -54 31 -64 3 -3 12 -20
20 -37 8 -18 18 -33 22 -33 5 0 5 -4 2 -10 -3 -5 -1 -10 5 -10 6 0 8 -4 5 -10
-3 -5 -2 -10 3 -10 5 0 12 -9 15 -20 8 -31 10 -34 24 -48 7 -7 13 -20 13 -28
0 -8 5 -14 10 -14 6 0 9 -3 8 -7 -3 -13 25 -63 35 -63 5 0 7 -7 3 -15 -3 -8
-1 -15 4 -15 5 0 12 -10 16 -22 4 -13 9 -25 13 -28 3 -3 14 -21 23 -40 9 -19
24 -47 33 -62 39 -72 47 -85 63 -120 9 -21 20 -38 24 -38 5 0 8 -6 8 -14 0
-15 53 -121 73 -145 10 -12 9 -13 -3 -7 -9 4 -8 1 3 -7 9 -8 17 -19 17 -26 0
-6 5 -11 11 -11 5 0 8 -4 5 -9 -3 -5 1 -14 9 -21 8 -7 15 -17 15 -22 0 -5 9
-21 20 -35 11 -14 17 -29 14 -34 -3 -5 -1 -9 4 -9 9 0 25 -37 23 -52 -1 -5 3
-8 8 -8 5 0 12 -12 16 -27 3 -15 10 -30 13 -33 4 -3 25 -40 46 -82 22 -43 42
-78 46 -78 3 0 13 -15 21 -32 23 -50 103 -202 109 -208 3 -3 17 -29 31 -57 14
-29 29 -50 33 -46 4 4 5 1 1 -7 -4 -12 -24 -15 -93 -14 -48 1 -90 2 -95 3 -4
1 -13 13 -20 29 -6 15 -14 29 -17 32 -3 3 -25 46 -50 95 -25 50 -47 92 -50 95
-3 3 -11 16 -18 30 -6 14 -16 32 -20 40 -5 8 -17 29 -26 45 -10 17 -20 38 -23
48 -3 9 -9 17 -14 17 -5 0 -9 9 -9 20 0 11 -5 20 -11 20 -5 0 -8 4 -4 9 3 6
-3 14 -12 20 -10 6 -14 11 -10 11 5 0 -1 16 -13 35 -12 19 -19 35 -15 35 3 0
-1 7 -9 16 -9 8 -16 21 -16 28 0 8 -7 19 -15 26 -8 7 -12 16 -9 21 3 5 0 9 -6
9 -6 0 -9 4 -6 9 3 5 -1 12 -10 15 -8 3 -13 10 -9 15 3 5 1 12 -5 16 -6 4 -8
11 -5 16 4 5 -1 12 -9 15 -9 3 -16 12 -16 20 0 8 -5 14 -11 14 -5 0 -8 3 -6 8
3 4 -6 25 -19 47 -13 22 -29 52 -35 68 -6 15 -15 27 -21 27 -5 0 -7 4 -4 8 3
5 -5 24 -18 43 -13 19 -23 37 -22 41 0 4 -8 18 -19 30 -10 13 -19 24 -18 25 4
8 -11 43 -19 43 -5 0 -6 5 -3 10 3 6 1 10 -5 10 -6 0 -9 4 -6 9 4 5 3 11 -1
13 -5 1 -20 26 -34 53 -14 28 -44 85 -68 128 -23 42 -39 77 -34 77 4 0 3 4 -4
8 -7 4 -31 44 -54 87 -65 125 -99 189 -109 205 -27 45 -69 126 -70 135 -1 6
-7 17 -14 25 -7 8 -23 35 -35 60 -39 76 -103 194 -114 208 -5 6 -6 12 -3 12 4
0 0 7 -8 16 -9 8 -16 21 -16 28 0 8 -7 19 -15 26 -8 7 -15 21 -15 31 0 11 -4
19 -10 19 -5 0 -10 9 -10 20 0 11 -4 20 -10 20 -5 0 -10 9 -10 21 0 11 -4 18
-9 15 -5 -3 -11 8 -15 25 -4 20 -10 28 -17 23 -7 -4 -9 -3 -5 4 3 6 2 13 -4
17 -6 4 -8 10 -6 14 3 4 -4 18 -15 29 -11 12 -17 22 -13 22 4 0 -1 9 -11 20
-10 11 -14 20 -9 20 5 0 5 4 -1 8 -5 4 -30 47 -55 97 -25 49 -47 92 -50 95 -6
6 -15 22 -60 110 -19 36 -40 73 -48 83 -9 9 -12 17 -9 17 4 0 -2 15 -13 33
-10 17 -29 53 -42 80 -13 26 -26 47 -30 47 -5 0 -8 7 -8 15 0 8 -5 15 -12 15
-6 0 -9 2 -6 5 3 3 -10 34 -28 68 -18 34 -39 74 -45 90 -6 15 -15 27 -20 27
-5 0 -9 7 -9 16 0 9 -9 29 -21 45 -11 16 -17 29 -14 29 4 0 -3 12 -14 26 -11
15 -18 30 -15 35 3 5 0 9 -5 9 -6 0 -11 7 -11 15 0 8 -5 15 -11 15 -5 0 -7 5
-4 10 3 6 -1 13 -9 16 -9 3 -14 9 -11 14 2 4 -2 16 -10 26 -8 10 -15 27 -15
37 0 10 -4 15 -10 12 -9 -5 -11 0 -10 20 1 3 -8 17 -19 32 -12 14 -18 29 -15
34 3 5 1 9 -4 9 -6 0 -13 11 -16 25 -4 16 -11 23 -18 19 -7 -5 -9 0 -6 12 3
11 0 25 -6 31 -20 22 -31 39 -34 53 -2 8 -9 21 -15 28 -6 8 -12 21 -13 30 -2
8 -9 19 -16 23 -7 5 -8 9 -3 9 7 0 7 3 0 8 -5 4 -16 18 -23 31 -12 21 -12 23
2 18 9 -4 16 -2 16 4 0 6 6 6 19 0 10 -6 21 -8 23 -6z m408 5 c0 -9 38 -6 46
3 4 4 13 2 20 -4 7 -6 15 -6 18 -1 3 5 16 7 29 5 17 -3 29 -18 42 -49 10 -24
23 -44 28 -44 6 0 8 -3 4 -6 -3 -3 5 -23 18 -44 13 -21 21 -41 18 -44 -4 -3
-2 -6 3 -6 6 0 16 -16 24 -35 8 -19 17 -35 21 -35 6 0 18 -28 23 -52 0 -4 7
-13 14 -19 6 -7 12 -19 12 -26 0 -7 5 -13 11 -13 6 0 8 -7 5 -15 -3 -9 1 -18
9 -21 8 -4 12 -10 9 -15 -3 -5 0 -9 6 -9 6 0 8 -4 5 -10 -3 -5 -2 -10 3 -10 6
0 15 -12 21 -27 12 -33 73 -146 88 -165 6 -7 14 -24 18 -38 4 -13 14 -30 21
-38 8 -7 12 -18 9 -23 -4 -5 -2 -9 2 -9 5 0 16 -17 25 -37 17 -38 49 -94 58
-103 3 -3 6 -11 8 -19 2 -8 12 -27 23 -43 11 -15 17 -28 13 -28 -4 0 1 -9 11
-20 10 -11 15 -20 11 -20 -4 0 0 -7 8 -16 9 -8 16 -22 16 -30 0 -8 5 -14 12
-14 6 0 9 -3 5 -6 -3 -3 5 -24 19 -45 13 -21 24 -43 24 -49 0 -5 5 -10 12 -10
6 0 8 -3 5 -7 -4 -3 0 -14 9 -24 8 -9 16 -24 18 -32 1 -8 9 -26 19 -40 9 -14
18 -31 19 -38 2 -7 11 -22 21 -33 10 -11 15 -26 13 -33 -3 -7 1 -13 9 -13 8 0
15 -9 15 -20 0 -11 5 -20 11 -20 5 0 8 -4 4 -9 -3 -5 2 -16 10 -24 8 -9 15
-22 15 -30 0 -9 3 -17 8 -19 4 -1 20 -28 35 -58 30 -57 98 -185 150 -280 16
-30 44 -82 60 -115 17 -33 39 -72 50 -87 10 -16 16 -28 13 -28 -3 0 6 -16 19
-36 14 -20 25 -43 25 -50 0 -7 3 -14 8 -16 4 -1 18 -27 31 -55 14 -29 28 -53
33 -53 5 0 6 -4 3 -10 -3 -5 -1 -10 5 -10 6 0 8 -4 5 -10 -3 -5 -1 -10 5 -10
6 0 9 -4 5 -9 -3 -5 2 -17 11 -25 8 -9 12 -16 7 -16 -4 0 -3 -4 3 -8 7 -4 24
-32 39 -62 15 -30 33 -65 39 -77 6 -13 14 -23 19 -23 4 0 7 -9 7 -20 0 -11 5
-20 11 -20 5 0 8 -4 5 -9 -3 -5 1 -12 9 -15 8 -3 15 -9 14 -13 -1 -4 0 -11 1
-15 1 -5 3 -11 5 -15 5 -20 49 -109 55 -113 11 -8 40 -72 40 -87 0 -8 3 -12 8
-10 4 3 13 -1 20 -9 7 -8 10 -14 7 -14 -7 0 46 -103 58 -111 5 -3 8 -9 8 -13
-1 -3 6 -21 16 -39 9 -17 18 -39 19 -47 2 -8 10 -20 18 -26 9 -6 13 -14 10
-17 -4 -3 1 -13 10 -22 9 -9 14 -20 11 -25 -3 -5 -1 -10 4 -12 5 -1 11 -9 13
-17 2 -8 11 -23 21 -33 9 -10 17 -25 17 -33 0 -8 5 -15 11 -15 5 0 8 -4 4 -9
-3 -6 3 -14 12 -20 10 -6 15 -11 10 -11 -4 0 8 -29 28 -65 19 -36 32 -65 30
-65 -3 0 7 -19 22 -42 14 -24 26 -49 26 -55 0 -7 4 -13 9 -13 4 0 8 -7 8 -15
0 -8 5 -15 10 -15 6 0 10 -5 10 -12 0 -6 11 -26 25 -44 14 -18 25 -40 25 -48
0 -9 5 -16 11 -16 5 0 8 -4 5 -9 -3 -5 1 -14 9 -21 8 -7 12 -16 9 -21 -3 -5
-1 -9 3 -9 5 0 18 -19 28 -42 10 -24 31 -64 46 -90 15 -25 25 -49 22 -52 -4
-3 -2 -6 4 -6 5 0 10 -6 10 -13 0 -16 -158 -18 -169 -2 -5 6 -8 5 -8 -2 0 -22
-16 -14 -30 15 -7 15 -13 30 -12 35 1 4 -2 7 -7 7 -5 0 -12 11 -15 25 -3 13
-16 34 -28 45 -12 11 -16 20 -9 20 8 0 5 9 -8 26 -12 15 -21 33 -21 40 0 8 -5
14 -11 14 -5 0 -8 4 -5 9 4 5 3 11 -1 13 -5 1 -21 29 -36 60 -16 32 -33 60
-38 64 -5 3 -7 10 -4 15 4 5 2 9 -3 9 -5 0 -15 15 -23 33 -7 17 -21 43 -31 56
-10 13 -16 27 -13 31 3 4 -2 13 -10 20 -8 7 -15 21 -15 30 0 10 -3 20 -7 22
-9 4 -55 93 -55 105 0 4 -6 12 -14 16 -8 4 -14 14 -14 21 0 8 -7 19 -15 26 -8
7 -12 16 -9 21 3 5 0 9 -5 9 -6 0 -11 5 -11 11 0 6 -16 37 -35 70 -19 32 -32
59 -29 59 4 0 -2 12 -11 27 -10 14 -36 61 -58 102 -22 42 -47 87 -57 101 -9
14 -22 40 -29 58 -8 17 -17 32 -22 32 -5 0 -9 6 -9 14 0 17 -40 89 -52 94 -5
2 -6 8 -2 13 3 5 0 9 -7 9 -7 0 -10 3 -6 6 3 3 -5 24 -19 45 -13 21 -21 39
-18 39 4 0 0 8 -8 18 -8 9 -22 31 -30 47 -37 74 -100 191 -109 201 -5 6 -6 14
-2 17 3 4 2 7 -3 7 -6 0 -16 16 -23 35 -7 19 -17 35 -22 35 -6 0 -7 5 -4 10 3
6 2 10 -3 10 -4 0 -14 16 -22 35 -8 19 -18 35 -22 35 -5 0 -6 5 -3 11 4 6 -1
17 -11 24 -11 8 -16 15 -11 15 4 0 -3 17 -16 38 -13 20 -27 47 -31 60 -4 12
-12 22 -17 22 -5 0 -8 3 -7 8 2 11 -14 45 -29 60 -7 7 -13 19 -13 26 0 8 -7
19 -15 26 -9 7 -14 19 -11 27 3 7 1 13 -5 13 -6 0 -7 5 -4 10 3 6 2 10 -3 10
-8 0 -35 45 -36 62 -1 4 -9 16 -18 27 -9 11 -14 22 -11 25 4 3 1 6 -6 6 -7 0
-10 4 -7 8 3 5 -3 18 -12 28 -10 10 -19 23 -19 27 -3 19 -29 67 -35 67 -5 0
-8 9 -8 20 0 11 -3 20 -8 20 -4 0 -14 15 -21 33 -8 17 -27 53 -42 79 -15 25
-25 49 -22 52 4 3 1 6 -6 6 -7 0 -9 5 -6 10 3 6 3 10 -2 10 -4 0 -19 23 -32
50 -14 28 -29 50 -33 50 -4 0 -7 3 -6 8 4 14 -13 52 -23 52 -6 0 -7 5 -4 10 3
6 1 10 -6 10 -7 0 -10 3 -6 6 3 3 -5 24 -19 45 -13 21 -21 39 -18 39 4 0 0 8
-9 18 -8 9 -35 57 -60 105 -25 48 -51 95 -57 103 -7 7 -9 14 -5 14 3 0 -3 12
-14 26 -12 15 -21 35 -21 45 0 11 -4 19 -9 19 -4 0 -25 33 -44 73 -20 39 -64
122 -97 182 -33 61 -72 135 -87 165 -16 30 -30 57 -33 60 -15 15 -39 68 -33
74 3 3 2 6 -4 6 -10 0 -19 19 -21 44 0 5 -5 12 -10 15 -14 9 -27 55 -13 47 6
-4 11 -3 11 1 0 5 9 9 20 9 11 0 20 -3 20 -6z m3420 5 c0 -3 -10 -25 -21 -48
-12 -23 -22 -44 -21 -47 0 -3 -7 -13 -15 -22 -9 -10 -12 -18 -7 -18 5 0 4 -4
-1 -8 -6 -4 -22 -29 -35 -57 -14 -27 -28 -52 -33 -53 -4 -2 -5 -8 -1 -13 3 -5
0 -9 -5 -9 -6 0 -11 -7 -11 -15 0 -8 -4 -15 -10 -15 -5 0 -9 -3 -8 -7 2 -9
-23 -65 -33 -73 -8 -7 -22 -43 -21 -52 1 -5 -2 -8 -7 -8 -5 0 -14 -15 -22 -32
-7 -18 -15 -35 -18 -38 -6 -5 -65 -116 -130 -245 -20 -38 -40 -73 -46 -77 -7
-5 -7 -8 0 -8 6 0 6 -3 -1 -8 -5 -4 -25 -37 -44 -74 -18 -38 -37 -68 -42 -68
-4 0 -8 -9 -8 -19 0 -11 -5 -23 -10 -26 -6 -4 -8 -10 -5 -15 3 -4 -1 -10 -9
-13 -8 -3 -17 -19 -21 -36 -4 -17 -10 -31 -14 -31 -5 0 -16 -20 -27 -45 -10
-25 -21 -45 -25 -45 -7 0 -23 -50 -20 -63 1 -5 -3 -6 -8 -3 -5 3 -15 -9 -22
-27 -7 -17 -15 -34 -18 -37 -3 -3 -19 -32 -36 -65 -16 -33 -34 -63 -40 -67 -5
-4 -7 -8 -2 -8 4 0 -4 -18 -18 -40 -13 -21 -26 -45 -27 -52 -2 -7 -11 -21 -20
-32 -10 -10 -15 -23 -12 -28 3 -4 0 -8 -6 -8 -6 0 -8 -4 -5 -10 3 -5 3 -10 -2
-10 -4 0 -19 -24 -32 -52 -13 -29 -30 -59 -38 -66 -7 -8 -11 -18 -8 -23 4 -5
3 -9 -2 -9 -4 0 -15 -15 -22 -32 -8 -18 -27 -54 -43 -80 -15 -27 -24 -48 -20
-48 4 0 2 -4 -3 -8 -6 -4 -17 -20 -25 -37 -8 -16 -17 -32 -20 -35 -3 -3 -25
-43 -49 -90 -24 -47 -47 -87 -50 -90 -3 -3 -7 -10 -8 -15 -1 -6 -17 -38 -36
-72 -20 -34 -38 -71 -42 -82 -3 -12 -10 -21 -15 -21 -5 0 -11 -13 -15 -30 -4
-16 -10 -30 -15 -30 -5 0 -14 -16 -21 -35 -7 -19 -17 -35 -23 -35 -5 0 -7 -3
-3 -6 3 -3 -4 -23 -17 -43 -12 -20 -28 -51 -35 -68 -7 -18 -17 -30 -22 -27 -5
3 -6 -2 -3 -10 4 -9 1 -16 -6 -16 -7 0 -10 -7 -6 -15 3 -8 1 -15 -4 -15 -4 0
-19 -23 -33 -51 l-24 -51 -23 37 c-13 21 -23 44 -23 51 0 7 -4 11 -9 8 -8 -5
-32 48 -28 62 1 4 -3 10 -9 14 -8 4 -4 18 13 42 13 20 22 39 19 41 -2 3 4 15
14 26 10 12 18 25 17 29 0 4 6 13 13 20 7 8 11 18 8 23 -4 5 -2 9 3 9 4 0 14
16 22 35 8 19 17 35 22 35 4 0 8 9 8 20 0 10 8 24 18 29 9 6 14 11 9 11 -4 0
-1 13 8 30 8 16 15 33 14 36 0 4 5 10 13 15 7 5 13 12 13 16 0 4 12 29 28 55
15 26 27 51 27 57 0 6 5 11 11 11 5 0 7 5 4 10 -3 6 -2 10 3 10 9 0 25 37 23
53 -1 4 3 7 8 7 5 0 13 10 17 23 3 12 15 34 25 48 10 14 16 28 13 31 -2 3 2
11 11 18 8 7 15 19 15 26 0 8 5 14 11 14 5 0 8 4 5 9 -3 5 1 14 9 21 8 7 13
16 10 20 -3 4 2 13 10 20 8 7 12 16 9 21 -3 5 -1 9 3 9 5 0 20 25 34 55 13 30
27 55 30 55 3 0 11 16 19 35 8 19 18 35 22 35 5 0 7 4 4 9 -3 5 1 14 9 21 8 7
12 16 10 21 -3 4 3 17 14 28 11 11 17 22 14 25 -4 3 0 6 7 6 7 0 10 3 7 7 -4
3 0 17 8 30 9 13 13 23 10 23 -3 0 3 10 15 22 18 20 21 27 19 44 0 4 3 10 8
13 5 3 17 22 26 41 38 78 65 119 72 112 5 -4 5 -2 1 5 -3 6 7 34 23 61 16 28
27 53 24 56 -4 3 -1 6 5 6 7 0 12 7 12 15 0 8 4 15 10 15 5 0 9 3 8 8 -2 11
25 65 44 86 10 11 18 28 18 37 0 10 6 24 13 31 15 15 16 15 23 46 4 12 13 22
21 22 8 0 11 4 8 10 -7 11 10 47 32 69 8 7 12 20 9 27 -3 8 -1 14 4 14 5 0 19
22 32 49 12 27 26 48 30 45 4 -2 5 5 3 16 -2 11 2 23 8 27 15 10 61 93 51 93
-4 0 2 10 13 23 11 12 26 37 33 55 7 17 17 32 22 32 5 0 7 4 3 9 -3 5 0 15 7
23 7 7 30 47 51 88 79 153 102 195 110 201 5 3 10 12 11 20 10 47 14 49 112
49 52 0 94 -2 94 -5z m338 -7 c7 -7 12 -8 12 -2 0 5 9 10 20 10 11 0 20 -4 20
-9 0 -5 6 -7 14 -4 15 6 -30 -82 -48 -95 -6 -4 -8 -8 -3 -8 7 0 -55 -123 -75
-147 -6 -7 -7 -13 -2 -13 5 0 5 -4 -1 -8 -5 -4 -23 -33 -39 -64 -16 -32 -33
-58 -38 -58 -5 0 -6 -5 -3 -10 3 -6 -3 -24 -15 -40 -12 -17 -18 -30 -13 -30 4
0 3 -4 -3 -8 -17 -12 -54 -79 -47 -85 3 -4 1 -7 -5 -7 -7 0 -12 -6 -12 -14 0
-8 -3 -16 -7 -18 -5 -1 -23 -32 -41 -68 -93 -180 -146 -276 -156 -282 -6 -4
-7 -8 -3 -8 9 0 -42 -101 -56 -111 -5 -3 -9 -12 -10 -20 -2 -8 -13 -32 -25
-53 -12 -20 -19 -42 -16 -48 4 -6 2 -8 -3 -5 -6 4 -25 -23 -44 -63 -19 -39
-38 -70 -42 -70 -5 0 -5 -4 -2 -10 3 -5 1 -10 -5 -10 -6 0 -8 -4 -5 -10 3 -5
3 -10 -2 -10 -8 0 -36 -54 -33 -66 1 -4 -3 -10 -8 -13 -5 -3 -21 -28 -34 -56
-46 -92 -101 -190 -112 -197 -6 -4 -8 -8 -4 -8 4 0 -1 -15 -12 -32 -11 -18
-34 -62 -52 -98 -17 -36 -36 -68 -41 -71 -4 -3 -9 -13 -11 -21 -1 -8 -9 -27
-19 -41 -9 -15 -17 -29 -17 -31 0 -3 -13 -28 -30 -56 -16 -27 -26 -50 -22 -50
4 0 2 -4 -4 -8 -6 -4 -23 -33 -39 -64 -16 -32 -33 -58 -38 -58 -4 0 -6 -4 -2
-9 3 -5 1 -12 -5 -16 -5 -3 -10 -15 -10 -26 0 -10 -4 -19 -10 -19 -5 0 -10 -6
-10 -14 0 -7 -7 -19 -15 -26 -9 -7 -13 -15 -11 -18 3 -2 -2 -11 -10 -19 -8 -8
-12 -18 -9 -23 3 -4 -2 -11 -11 -14 -9 -4 -14 -9 -11 -13 4 -3 -3 -19 -14 -34
-11 -16 -17 -29 -12 -29 4 0 3 -4 -3 -8 -6 -4 -23 -32 -38 -62 -25 -50 -47
-91 -99 -187 -10 -18 -18 -36 -18 -40 -1 -5 -10 -19 -20 -32 -11 -13 -19 -30
-19 -37 0 -8 -4 -14 -9 -14 -5 0 -12 -13 -16 -30 -4 -16 -11 -30 -16 -30 -5 0
-9 -7 -9 -15 0 -8 -5 -15 -11 -15 -5 0 -8 -4 -4 -9 3 -5 -1 -16 -9 -24 -8 -8
-12 -17 -9 -21 4 -3 0 -6 -7 -6 -7 0 -10 -3 -7 -6 3 -4 -2 -18 -13 -32 -11
-13 -17 -28 -14 -33 3 -5 0 -9 -5 -9 -6 0 -11 -7 -11 -15 0 -8 -5 -15 -11 -15
-5 0 -8 -4 -5 -9 3 -5 -1 -14 -9 -21 -8 -7 -12 -16 -9 -21 3 -5 1 -9 -5 -9 -5
0 -13 -9 -16 -20 -4 -11 -11 -18 -16 -14 -5 3 -7 9 -4 14 3 5 1 11 -5 15 -5 3
-17 23 -27 43 -9 20 -25 49 -34 63 -10 14 -16 29 -12 33 3 3 1 6 -5 6 -6 0 3
24 19 53 16 28 36 69 45 90 9 20 20 37 25 37 5 0 9 9 9 19 0 11 7 27 16 35 8
9 12 16 7 16 -4 0 -3 4 2 8 6 4 21 30 35 57 13 28 35 68 49 90 13 22 24 46 24
52 0 7 4 13 7 13 4 0 13 14 20 30 7 17 16 30 21 30 5 0 6 7 3 15 -4 8 -2 15 4
15 5 0 17 17 26 38 35 80 93 182 100 175 4 -4 4 0 0 10 -3 10 -1 17 6 17 6 0
9 4 5 9 -3 6 5 20 17 32 13 12 16 18 8 14 -12 -7 -12 -5 1 11 22 27 79 135 79
151 0 7 4 13 10 13 5 0 12 11 16 25 3 14 11 25 17 25 6 0 8 3 4 6 -3 4 1 13 9
21 8 8 12 19 9 24 -4 5 -1 9 4 9 6 0 11 7 11 15 0 8 5 15 11 15 5 0 7 5 4 10
-3 6 -1 10 5 10 6 0 9 4 6 8 -3 5 4 19 15 30 11 12 17 22 13 22 -3 0 -1 7 6
15 7 8 9 15 6 15 -4 0 0 7 8 16 9 8 16 22 16 30 0 8 5 14 11 14 5 0 7 5 4 10
-3 6 -1 10 4 10 6 0 11 9 11 20 0 11 4 20 8 20 5 0 16 18 26 40 10 22 22 40
27 40 6 0 8 4 4 9 -3 5 4 25 15 43 11 18 28 49 37 68 10 19 23 38 28 42 7 5 7
8 0 8 -6 0 -6 3 1 8 6 4 23 33 38 65 14 31 31 57 36 57 6 0 10 7 10 15 0 20
29 78 44 87 6 4 7 8 3 8 -5 0 1 13 12 29 11 15 18 31 14 35 -3 3 -2 6 4 6 11
0 40 59 35 73 -1 4 3 7 8 7 9 0 36 54 28 56 -2 0 5 8 15 18 9 10 17 23 17 30
0 7 10 23 23 36 12 14 21 25 19 25 -8 0 11 55 19 55 5 0 9 6 9 14 0 7 7 19 15
26 8 7 12 16 9 21 -3 5 0 9 6 9 6 0 9 4 6 9 -4 5 -3 11 1 13 5 1 21 29 38 61
16 31 32 57 35 57 3 0 6 10 7 22 1 12 9 25 17 30 8 5 13 15 10 23 -4 8 -1 15
5 15 7 0 17 14 22 30 6 17 16 30 22 30 6 0 8 3 4 6 -3 4 5 23 18 43 14 19 25
41 25 48 0 7 5 13 12 13 6 0 8 3 5 6 -4 4 2 19 12 33 10 14 16 32 13 40 -2 8
0 11 5 8 6 -4 20 18 33 48 13 30 28 55 33 55 5 0 7 7 3 15 -3 8 -2 15 2 15 4
0 14 15 21 33 8 17 22 37 30 44 11 8 12 12 4 13 -9 0 -7 7 4 20 13 15 30 20
68 20 28 0 56 -5 63 -12z m472 -42 c-38 -73 -53 -98 -69 -118 -8 -10 -11 -18
-8 -18 4 0 -3 -17 -14 -37 -26 -46 -114 -211 -147 -275 -13 -27 -28 -48 -33
-48 -6 0 -8 -4 -4 -9 7 -12 -33 -81 -47 -81 -6 0 -8 -6 -5 -13 3 -7 -4 -24
-14 -38 -10 -13 -19 -30 -19 -36 0 -7 -5 -13 -11 -13 -5 0 -7 -5 -4 -10 3 -6
0 -13 -9 -16 -8 -3 -13 -11 -10 -18 3 -7 -4 -23 -16 -36 -18 -21 -22 -29 -19
-46 0 -4 -4 -10 -9 -13 -12 -8 -47 -74 -44 -83 1 -5 -3 -8 -9 -8 -5 0 -7 -4
-4 -10 3 -5 1 -10 -5 -10 -6 0 -8 -4 -5 -10 3 -5 1 -10 -5 -10 -6 0 -8 -4 -5
-10 3 -5 2 -10 -2 -10 -5 0 -19 -24 -33 -52 -13 -29 -27 -55 -30 -58 -3 -3
-16 -27 -30 -55 -13 -27 -31 -58 -39 -67 -8 -10 -10 -18 -6 -18 4 0 1 -8 -8
-18 -8 -9 -20 -28 -26 -42 -6 -14 -29 -56 -51 -95 -22 -38 -56 -104 -77 -145
-21 -41 -40 -77 -43 -80 -12 -12 -30 -51 -30 -64 0 -8 -7 -17 -16 -20 -8 -3
-13 -10 -10 -14 3 -5 -6 -25 -19 -44 -13 -20 -22 -38 -19 -40 2 -3 -2 -11 -11
-18 -8 -7 -15 -19 -15 -26 0 -8 -5 -14 -11 -14 -5 0 -7 -5 -4 -10 3 -6 -1 -13
-9 -16 -9 -3 -13 -10 -10 -15 3 -5 -4 -22 -15 -38 -12 -16 -21 -34 -21 -40 0
-6 -5 -11 -10 -11 -6 0 -9 -3 -8 -7 2 -9 -34 -85 -43 -93 -4 -3 -9 -15 -13
-27 -4 -13 -12 -23 -17 -23 -6 0 -7 -4 -4 -10 3 -5 1 -10 -6 -10 -6 0 -9 -8
-6 -20 3 -11 1 -18 -4 -14 -5 3 -9 -2 -9 -10 0 -9 -4 -16 -9 -16 -8 0 -23 -29
-26 -50 0 -3 -8 -16 -17 -30 -17 -27 -29 -49 -68 -126 -14 -27 -28 -50 -32
-52 -5 -2 -8 -12 -8 -22 0 -10 -7 -21 -16 -24 -9 -4 -14 -9 -10 -13 3 -3 -1
-15 -11 -25 -9 -10 -13 -18 -9 -18 3 0 -5 -18 -18 -39 -14 -21 -22 -42 -19
-45 4 -3 2 -6 -4 -6 -6 0 -18 -18 -27 -40 -9 -22 -20 -40 -26 -40 -5 0 -7 -7
-4 -15 4 -8 1 -15 -5 -15 -6 0 -11 -9 -11 -20 0 -11 -4 -20 -9 -20 -5 0 -13
-10 -17 -22 -4 -13 -18 -40 -31 -61 -13 -21 -21 -43 -17 -49 4 -6 3 -8 -3 -5
-6 4 -20 -14 -31 -42 -12 -26 -28 -54 -37 -61 -8 -7 -12 -16 -9 -21 3 -5 -2
-16 -10 -25 -9 -8 -16 -22 -16 -30 0 -8 -4 -14 -10 -14 -5 0 -7 -8 -3 -17 3
-10 3 -15 -2 -11 -4 4 -19 -16 -33 -45 -14 -28 -30 -55 -36 -59 -6 -5 -7 -8
-1 -8 7 0 7 -3 0 -8 -5 -4 -29 -44 -52 -89 -23 -45 -45 -78 -49 -75 -4 4 -4
-1 -1 -10 3 -9 -1 -22 -9 -28 -8 -7 -14 -19 -14 -26 0 -8 -5 -14 -11 -14 -5 0
-8 -4 -4 -9 3 -5 -6 -22 -20 -38 -15 -17 -23 -21 -19 -10 4 10 1 17 -6 17 -6
0 -9 4 -5 9 3 6 -3 14 -12 20 -10 6 -15 11 -10 11 4 0 0 11 -9 25 -9 14 -13
25 -10 25 6 0 -5 16 -30 43 -9 9 -7 18 7 38 10 14 16 29 12 33 -3 3 0 6 7 6 7
0 10 3 7 7 -4 3 -1 13 7 22 7 9 33 54 56 101 24 47 50 93 58 103 8 9 11 17 7
17 -4 0 0 9 10 20 10 11 14 20 9 20 -5 0 -4 4 1 8 16 12 45 69 38 76 -3 3 1 6
10 6 10 0 14 5 11 15 -4 8 -1 15 5 15 6 0 11 5 11 12 0 6 8 20 18 31 11 13 12
17 3 12 -9 -5 -5 5 7 22 12 17 22 36 22 42 0 6 4 11 8 11 4 0 14 16 21 35 7
19 17 35 22 35 6 0 7 5 4 10 -3 6 -1 10 4 10 6 0 11 9 11 20 0 10 8 24 18 29
9 6 13 11 9 11 -4 0 -2 10 5 23 7 12 11 25 10 30 -1 4 2 7 6 7 5 0 21 27 37
60 16 33 32 60 37 60 4 0 8 8 8 18 0 11 9 29 19 41 11 13 23 36 26 52 4 16 11
29 16 29 5 0 9 7 9 15 0 8 5 15 11 15 5 0 8 4 4 9 -3 5 3 17 12 27 10 10 17
20 17 23 -2 12 19 51 28 51 5 0 6 5 3 10 -3 6 -1 10 6 10 7 0 10 3 6 6 -3 3 5
23 18 44 13 21 21 41 18 44 -4 3 -1 6 5 6 7 0 12 6 12 14 0 8 7 22 16 30 8 9
13 20 10 25 -3 5 1 12 10 15 9 4 14 9 11 13 -4 3 -2 12 3 18 9 11 26 41 88
160 14 28 33 58 41 68 8 9 11 17 8 17 -4 0 6 21 21 48 15 26 34 61 42 77 8 17
21 38 29 48 8 9 11 17 7 17 -4 0 0 7 8 16 9 8 14 19 11 24 -3 4 2 11 11 14 9
4 14 9 11 13 -4 3 3 19 14 34 11 16 17 29 13 29 -4 0 0 8 8 18 9 9 19 27 22
40 4 12 12 22 17 22 5 0 9 5 9 11 0 6 21 48 46 93 26 44 47 87 47 94 0 6 4 12
9 12 4 0 8 7 8 15 0 8 5 15 10 15 6 0 10 6 10 14 0 7 6 19 14 26 8 6 12 18 9
26 -3 8 0 14 6 14 6 0 11 6 11 14 0 7 7 19 15 26 8 6 14 15 13 18 -2 10 36 86
45 90 4 2 5 8 1 13 -3 5 0 9 7 9 7 0 10 3 6 6 -3 4 1 13 9 21 8 9 18 28 21 44
3 15 10 27 16 26 6 -1 12 3 12 8 2 23 17 55 26 55 5 0 9 7 9 14 0 17 38 91 69
134 11 16 18 32 14 36 -3 3 -2 6 3 6 6 0 16 16 24 35 8 19 18 35 24 35 5 0 6
3 3 7 -4 3 0 15 10 25 9 10 13 18 9 18 -4 0 2 13 13 29 11 15 18 31 14 35 -3
3 -1 6 5 6 7 0 12 6 12 14 0 7 6 19 14 25 8 7 18 26 21 42 4 16 11 29 16 29 6
0 8 4 4 9 -3 5 -1 12 4 15 13 8 52 86 43 86 -4 0 -2 4 4 8 15 10 57 82 48 82
-4 0 1 9 11 20 17 18 30 21 110 19 l91 -1 -26 -52z m440 46 c0 -5 -15 -33 -33
-63 -18 -30 -39 -69 -46 -86 -7 -18 -17 -33 -22 -33 -5 0 -9 -8 -9 -19 0 -10
-7 -24 -15 -31 -8 -7 -15 -21 -15 -31 0 -11 -4 -19 -10 -19 -5 0 -12 -11 -16
-25 -3 -14 -10 -25 -16 -25 -5 0 -6 -4 -3 -10 3 -5 2 -10 -3 -10 -6 0 -13 -12
-17 -27 -3 -15 -10 -30 -13 -33 -4 -3 -16 -23 -27 -45 -11 -22 -34 -66 -51
-97 -18 -31 -30 -59 -26 -62 3 -3 0 -6 -6 -6 -7 0 -12 -7 -12 -15 0 -8 -4 -15
-10 -15 -6 0 -9 -3 -8 -7 2 -13 -20 -61 -32 -68 -5 -3 -8 -11 -5 -16 4 -5 2
-9 -3 -9 -5 0 -15 -13 -22 -30 -7 -16 -17 -27 -23 -23 -5 3 -7 1 -4 -4 7 -12
-52 -133 -64 -133 -5 0 -6 -7 -3 -15 4 -8 2 -15 -3 -15 -5 0 -20 -25 -33 -55
-13 -30 -28 -55 -33 -55 -4 0 -6 -4 -3 -9 3 -5 -1 -14 -9 -21 -8 -7 -12 -16
-10 -21 3 -4 -3 -12 -12 -18 -10 -5 -17 -12 -16 -15 4 -11 -19 -66 -28 -66 -5
0 -9 -8 -9 -19 0 -10 -7 -24 -15 -31 -8 -7 -15 -18 -15 -24 0 -6 -11 -28 -25
-49 -14 -20 -22 -37 -18 -37 4 0 -1 -7 -12 -16 -11 -8 -19 -18 -17 -22 3 -9
-41 -96 -50 -100 -5 -2 -8 -9 -8 -17 0 -7 -7 -18 -15 -25 -8 -7 -12 -16 -9
-21 3 -5 0 -9 -6 -9 -6 0 -8 -4 -5 -10 3 -5 1 -10 -5 -10 -6 0 -9 -4 -6 -9 4
-5 3 -11 -1 -13 -5 -1 -19 -25 -33 -53 -13 -27 -28 -53 -33 -56 -5 -3 -9 -10
-9 -15 -2 -21 -11 -44 -17 -44 -4 0 -13 -16 -20 -35 -7 -19 -17 -35 -22 -35
-5 0 -8 -3 -7 -7 5 -15 -24 -73 -33 -67 -5 3 -8 2 -7 -3 4 -13 -34 -93 -44
-93 -5 0 -6 -4 -3 -10 3 -5 1 -10 -5 -10 -6 0 -9 -4 -6 -9 3 -5 -1 -14 -9 -21
-8 -7 -15 -17 -15 -22 0 -6 -9 -23 -21 -39 -11 -16 -18 -29 -15 -29 4 0 -5
-18 -19 -40 -14 -22 -22 -40 -19 -40 4 0 -3 -8 -14 -19 -12 -10 -18 -21 -15
-25 4 -4 3 -10 -2 -14 -13 -9 -55 -95 -55 -111 0 -7 -4 -9 -10 -6 -5 3 -10 3
-11 -2 -3 -32 -10 -49 -25 -60 -10 -7 -15 -13 -11 -13 10 0 -83 -172 -97 -182
-6 -4 -7 -8 -2 -8 5 0 3 -6 -3 -13 -6 -8 -8 -17 -4 -20 3 -4 2 -7 -4 -7 -8 0
-35 -46 -35 -60 0 -3 -5 -12 -12 -20 -7 -8 -18 -30 -26 -47 -7 -18 -15 -33
-19 -33 -7 0 -34 -61 -32 -72 0 -5 -3 -8 -9 -8 -5 0 -10 -9 -10 -20 0 -10 -7
-23 -16 -28 -9 -5 -16 -12 -15 -15 1 -14 -13 -43 -28 -55 -13 -11 -13 -12 -1
-6 11 6 10 2 -3 -13 -9 -11 -14 -23 -10 -26 3 -4 2 -7 -4 -7 -6 0 -16 -12 -22
-27 -6 -16 -15 -35 -20 -43 -42 -65 -80 -143 -75 -152 4 -7 2 -8 -4 -4 -7 4
-12 1 -12 -8 0 -9 -4 -16 -10 -16 -5 0 -9 -3 -8 -7 2 -12 -13 -46 -30 -65 -8
-10 -12 -18 -8 -18 4 0 -1 -12 -12 -27 -11 -16 -23 -38 -26 -50 -4 -13 -13
-29 -19 -36 -16 -17 -89 -157 -82 -157 3 0 -3 -10 -15 -22 -11 -12 -20 -28
-20 -36 0 -8 -8 -22 -17 -31 -10 -9 -20 -25 -21 -36 -2 -11 -7 -22 -12 -25 -4
-3 -10 -15 -14 -27 -4 -13 -12 -23 -17 -23 -6 0 -8 -4 -4 -9 3 -5 -2 -17 -11
-26 -13 -13 -19 -14 -25 -4 -4 7 -5 17 -3 21 3 4 1 8 -3 8 -10 0 -69 111 -65
123 1 4 -2 7 -7 7 -13 0 -8 23 12 53 9 15 17 31 17 37 0 5 5 10 11 10 5 0 8 4
5 9 -3 5 3 20 14 34 11 14 20 30 20 36 0 6 5 11 11 11 5 0 7 5 4 10 -3 6 -1
10 4 10 6 0 10 3 9 8 -4 13 13 52 23 52 5 0 9 9 9 19 0 11 5 21 11 23 5 2 11
10 13 18 5 27 29 70 39 70 5 0 7 9 4 20 -3 11 -2 18 3 15 8 -5 25 24 22 38 -1
4 2 7 6 7 5 0 17 19 28 43 10 23 21 44 24 47 3 3 19 32 35 65 17 33 42 81 57
106 14 26 24 50 21 53 -4 3 -1 6 6 6 7 0 10 4 7 9 -3 5 1 12 10 15 8 3 12 10
9 16 -3 5 -1 10 5 10 6 0 8 5 5 10 -3 6 -1 10 5 10 7 0 9 7 6 17 -4 10 -4 14
0 10 5 -4 15 7 24 25 54 107 82 158 91 163 5 4 7 11 4 16 -4 5 -1 9 4 9 6 0
10 3 9 8 -2 10 34 82 43 82 7 0 24 49 21 63 -1 4 3 7 8 7 10 0 35 48 32 63 -1
4 2 7 7 7 5 0 15 16 21 35 6 19 15 35 19 35 4 0 13 16 20 35 7 19 17 35 22 35
6 0 9 6 7 12 -3 7 3 21 13 32 10 10 21 32 24 47 4 16 10 29 14 29 4 0 13 16
21 35 8 19 18 35 22 35 5 0 7 4 3 9 -3 5 -1 12 4 15 5 4 27 41 48 84 21 42 44
83 51 90 6 7 12 18 12 24 0 5 9 22 20 38 11 15 17 29 14 32 -2 3 2 11 11 18 8
7 15 19 15 26 0 8 5 14 10 14 6 0 9 3 8 8 -4 10 55 122 64 122 4 0 5 7 2 15
-4 8 -2 15 4 15 5 0 17 18 26 40 9 22 20 40 26 40 5 0 9 3 8 8 -4 12 24 72 33
72 5 0 8 3 7 8 -2 12 20 60 32 67 5 3 8 11 5 16 -4 5 -1 9 4 9 6 0 11 7 11 15
0 8 5 15 11 15 5 0 7 5 4 10 -3 6 -2 10 3 10 6 0 13 12 16 26 4 15 14 33 22
41 8 8 12 19 9 24 -4 5 -1 9 5 9 6 0 8 5 5 10 -3 6 -2 10 2 10 5 0 17 18 27
40 10 22 22 40 27 40 6 0 7 5 4 10 -3 6 -1 10 5 10 6 0 8 5 5 10 -3 6 -1 10 6
10 7 0 10 2 7 6 -3 3 16 46 43 95 27 50 49 94 49 98 0 5 7 14 15 21 8 7 12 16
9 21 -3 5 0 9 5 9 6 0 11 7 11 15 0 8 4 15 10 15 5 0 9 3 8 8 -3 10 33 84 49
100 7 8 11 18 7 23 -3 5 2 12 10 15 9 3 13 10 10 15 -3 5 -1 9 5 9 6 0 8 8 4
18 -3 9 -3 14 2 10 9 -8 45 53 38 65 -2 4 1 7 7 7 6 0 8 5 5 10 -3 6 -3 10 2
10 4 0 26 35 48 78 22 42 42 79 45 82 3 3 6 12 8 20 2 8 8 17 13 18 5 2 9 12
9 22 0 10 4 20 9 22 5 2 11 10 13 18 3 14 12 28 34 53 6 7 9 17 7 23 -2 6 3
17 12 24 8 7 15 19 15 26 0 8 4 14 10 14 5 0 7 7 4 15 -4 8 -2 15 4 15 5 0 15
15 23 33 7 17 15 34 19 37 3 3 11 17 17 33 13 27 13 27 113 27 55 0 100 -4
100 -8z"/>
</g>
</svg>
